HIERARCHY
ROOT Hips
{
    OFFSET 13.452005386352539 79.48128128051758 -18.228958129882812
    CHANNELS 6 Xposition Yposition Zposition Zrotation Xrotation Yrotation
    JOINT RightUpLeg
    {
        OFFSET -13.452005386352539 0.0 0.0
        CHANNELS 3 Zrotation Xrotation Yrotation
        JOINT RightLeg
        {
            OFFSET 0.0 -33.90888977050781 0.0
            CHANNELS 3 Zrotation Xrotation Yrotation
            JOINT RightFoot
            {
                OFFSET 0.0 -45.572391510009766 0.0
                CHANNELS 3 Zrotation Xrotation Yrotation
                End Site
                {
                    OFFSET 0.0 0.0 18.228958129882812
                }
            }
        }
    }
    JOINT LeftUpLeg
    {
        OFFSET 13.452005386352539 0.0 0.0
        CHANNELS 3 Zrotation Xrotation Yrotation
        JOINT LeftLeg
        {
            OFFSET 0.0 -33.90888977050781 0.0
            CHANNELS 3 Zrotation Xrotation Yrotation
            JOINT LeftFoot
            {
                OFFSET 0.0 -45.572391510009766 0.0
                CHANNELS 3 Zrotation Xrotation Yrotation
                End Site
                {
                    OFFSET 0.0 0.0 18.228958129882812
                }
            }
        }
    }
    JOINT Spine
    {
        OFFSET 0.0 23.233760833740234 0.0
        CHANNELS 3 Zrotation Xrotation Yrotation
        JOINT Spine3
        {
            OFFSET 0.0 25.661170959472656 0.0
            CHANNELS 3 Zrotation Xrotation Yrotation
            JOINT Neck
            {
                OFFSET 0.0 10.486640930175781 0.0
                CHANNELS 3 Zrotation Xrotation Yrotation
                End Site
                {
                    OFFSET 0.0 4.1946563720703125 0.0
                }
            }
            JOINT LeftArm
            {
                OFFSET 14.551347732543945 0.0 0.0
                CHANNELS 3 Zrotation Xrotation Yrotation
                JOINT LeftForeArm
                {
                    OFFSET 27.39629364013672 0.0 0.0
                    CHANNELS 3 Zrotation Xrotation Yrotation
                    JOINT LeftHand
                    {
                        OFFSET 19.98226547241211 0.0 0.0
                        CHANNELS 3 Zrotation Xrotation Yrotation
                        End Site
                        {
                            OFFSET 7.992905616760254 0.0 0.0
                        }
                    }
                }
            }
            JOINT RightArm
            {
                OFFSET -14.551347732543945 0.0 0.0
                CHANNELS 3 Zrotation Xrotation Yrotation
                JOINT RightForeArm
                {
                    OFFSET -27.39629364013672 0.0 0.0
                    CHANNELS 3 Zrotation Xrotation Yrotation
                    JOINT RightHand
                    {
                        OFFSET -19.98226547241211 0.0 0.0
                        CHANNELS 3 Zrotation Xrotation Yrotation
                        End Site
                        {
                            OFFSET -7.992905616760254 0.0 0.0
                        }
                    }
                }
            }
        }
    }
}
MOTION
Frames: 11
Frame Time: 0.03333333333333333
2.2431731849792413e-05 60.99799728393555 -0.0008948328904807568 0.1778549820955823 -10.773267503231425 -15.294827350089108 -9.36938203024308 -45.59817022052904 -4.5289819521116215 11.758554629941086 78.05144567164183 -7.179163080567136 7.951386703658791e-16 -4.827710013492361e-33 -6.957463365701442e-16 -3.9662326062114213 -46.914644914299195 -0.6552316751631593 0.8373638570462969 76.81012123914846 -0.21877701310669556 -3.9756933518293955e-16 -3.1805546814635164e-15 -1.1034765745125397e-32 -0.692029533345004 26.05986077835513 -1.038989208538147 -4.508960151525977e-07 -7.440789239358239e-07 -3.0873431681580503 -1.5926363319370254 -7.468004571859743 176.91758196111104 114.30608674486376 -12.387447060961122 -157.93143086443385 -1.5842164359586584e-06 -2.205584382518632e-06 91.13198743807366 -3.1805546814635168e-15 0.0 0.0 -117.6089249855881 -18.388391398336246 159.672412834101 -1.8602179972036089e-06 -4.124241441792981e-06 -98.70545190040801 3.531125038440127e-31 -6.3611093629270335e-15 6.3611093629270335e-15
2.338456397410482e-05 60.99799728393555 -0.0009019082644954324 0.28560227650111464 -10.823614588585707 -15.233753022163153 -9.575232348416622 -45.63456581058589 -4.6070337276203315 11.800955913015272 78.03629171128173 -7.151624054566169 -7.951386703658792e-16 -9.939233379573487e-17 -2.9817700138720468e-15 -4.235456454512768 -46.976023485713256 -0.7787992227883469 1.3264008691008542 76.79075091568492 -0.5839517783707744 0.0 0.0 1.0933156717530838e-15 -0.7421377095542043 25.969656460479627 -1.0580299934371853 6.288075073035898e-08 9.413394473637449e-07 -3.0805981434238676 -1.6301663016927674 -7.368838907781814 176.87465471067853 113.97900444944655 -12.233450834521607 -157.80135190392812 -4.625054683952735e-07 -4.158380430699692e-07 91.87630219731243 0.0 0.0 0.0 -117.27197375933115 -18.397980296637297 159.53638574716683 -7.295547319450214e-07 -3.4173643015602616e-06 -98.69804680804891 -3.531125038440127e-31 -6.3611093629270335e-15 -6.3611093629270335e-15
1.750156661728397e-05 60.99799728393555 -0.0009087607613764703 0.3534121483153375 -10.705265211996926 -15.261837236432799 -9.670805434594051 -45.80843300391267 -4.674476899199944 11.690549104227866 78.04699276320258 -7.006645368635735 -1.4224502718325707e-32 3.2799470152592518e-15 4.969616689786745e-16 -4.4363110334798 -47.21765420195874 -0.9140279665839178 1.8107984205033267 76.88061922082353 -0.9401400596655799 -2.715586882589453e-32 -3.1308585145656493e-15 -9.93923337957349e-16 -0.6767708702636914 25.828076682147962 -1.0902869536669093 9.077815959410123e-08 -3.731562276889594e-07 -3.0520273267143083 -1.7461817071404828 -7.446396331723347 177.05113940220917 113.5666392795098 -11.918069739569265 -157.67566306297053 -8.809891296997181e-07 1.5649284830178497e-06 93.17833442614602 -6.3611093629270335e-15 6.3611093629270335e-15 3.531125038440127e-31 -116.90181478892426 -18.130126347752643 159.47794234630146 2.3310880299022206e-06 2.940158164787426e-06 -98.8458894641156 0.0 6.3611093629270335e-15 0.0
8.08749973657541e-06 60.99798583984375 -0.0009148847311735153 0.34429183803212576 -10.61420797880164 -15.149960558017366 -9.74765498833441 -45.86793331282449 -4.755263421643679 11.937053564959257 77.90113695562532 -7.1772102424438575 7.951386703658791e-16 -3.279947015259251e-15 -1.9878466759146975e-16 -4.481394724521814 -47.377359058316536 -0.9706681182392162 1.9309574989606544 77.12733619245546 -1.0121076186077378 8.551943452472182e-32 3.1805546814635168e-15 -3.0811623476677818e-15 -0.511230746390824 25.77313640783195 -1.147775579760702 5.55173059757929e-07 -5.198668732377811e-07 -3.1703133661557517 -1.8738927033072197 -7.639415433839668 176.90705116464517 113.68622921575817 -12.174379937948673 -157.3302396666238 -1.5671620975068192e-06 2.211240280057503e-06 94.5550218580396 3.1805546814635168e-15 -6.3611093629270335e-15 1.7655625192200634e-31 -116.83976699304183 -18.049287495144895 159.3947849062039 7.517302675201993e-07 -5.172607653168243e-07 -98.99851444574767 6.3611093629270335e-15 3.531125038440127e-31 6.3611093629270335e-15
1.1158317647641525e-05 60.997955322265625 -0.0009093064581975341 0.44512983491233094 -10.71161279741596 -15.03794066244889 -9.695029795274861 -45.837774475867484 -4.645065538002628 11.370868372687449 78.11080076752462 -6.727406118925802 0.0 0.0 -4.969616689786745e-16 -4.744731002098476 -47.35526252332486 -1.0931654198316865 1.6250071499712413 77.01555402372165 -0.602948956005993 -3.975693351829396e-16 2.4138550067461805e-33 -6.957463365701443e-16 -0.5869627631575607 25.92015786667911 -1.1629732194363827 -3.0372239014033855e-07 -8.072274791094593e-07 -3.1624390966562608 -1.7369224965348937 -7.673119510279528 177.08853513800918 113.73636003563279 -12.091528608355157 -157.19193510792593 3.030077372144122e-06 3.2370983622962456e-06 94.7851333792194 0.0 0.0 0.0 -116.80058323123235 -17.737070227437385 159.28091290256427 4.996303093945544e-07 2.4586918229234184e-06 -99.11007403873958 0.0 0.0 0.0
2.8499698601081036e-05 60.997955322265625 -0.0009086548816412687 0.5190966018841058 -10.635468418754431 -14.975200805218922 -9.663543741839241 -45.96513236669011 -4.566559586432641 11.192519102002462 78.24741649184446 -6.649091595147676 0.0 0.0 3.975693351829397e-16 -4.9010172728251735 -47.41557211876653 -1.1424636968507025 1.3734736873196836 76.93407609345279 -0.3157561804876007 -3.975693351829396e-16 4.969616689786745e-17 -4.969616689786745e-17 -0.7013827843200687 25.731002751601242 -1.144802701459788 1.6967524349253377e-07 -4.174552977056568e-07 -3.2508917628187715 -1.6391952813094743 -7.73041172757484 176.94317573408054 113.99723152968444 -12.714689574628306 -157.12091925545485 4.037570244828712e-06 4.253753855653526e-06 95.5433787313998 0.0 0.0 9.541664044390549e-15 -116.7798169631773 -17.950838698216575 159.24836303659825 -3.9963862757814154e-07 -2.7672322935339593e-07 -99.0325555340282 6.361109362927033e-15 3.531125038440127e-31 6.361109362927033e-15
3.8953134207986295e-05 60.99797058105469 -0.0009051582310348749 0.5520612316668813 -10.729587920845756 -14.929356224090078 -9.713566709799387 -46.01734499157352 -4.557560887554766 11.305618831541263 78.3698818967467 -6.7791752277260295 0.0 0.0 -2.981770013872047e-16 -4.940679736796131 -47.2868208964806 -1.1191277185913011 0.9884218829463206 76.9496223755216 0.04303766978781389 0.0 0.0 2.9817700138720468e-15 -0.8480211708902999 25.826914208867205 -1.1145048833409987 4.1683867880942515e-07 7.943578266271199e-07 -3.280929257298797 -1.4343170420694702 -7.582828121383104 177.02530066342698 114.151104602956 -12.642520195650803 -157.01881439567043 -4.169235488320402e-06 3.884301930548639e-06 95.32353568311217 -3.1805546814635168e-15 -6.3611093629270335e-15 -6.3611093629270335e-15 -116.67426037567037 -17.95717544233804 159.13386349547483 -3.054207763669689e-07 -6.490118210561738e-07 -98.95308128615483 6.3611093629270335e-15 0.0 0.0
4.377543518785387e-05 60.99797439575195 -0.0009106171783059835 0.5591339257871695 -10.605879752739831 -14.925533312198816 -9.827688343467933 -46.27513502343321 -4.677539193803483 12.007141651197914 78.41764305186062 -7.394871661746153 -2.758691436281349e-33 3.1805546814635168e-15 9.93923337957349e-17 -4.911166643755881 -47.63238643771729 -1.1211940496201789 1.3522095557164826 77.15568234446368 -0.3219543867203726 3.975693351829397e-16 -1.8966003624434274e-33 -5.46657835876542e-16 -0.760888582133436 25.684075669829472 -1.1362167401687142 -6.39378947442218e-07 2.061456585442387e-06 -3.280541904718204 -1.4119951532285913 -7.797181643568898 176.8224741008709 114.25555610579703 -12.910246893467862 -156.89205885605665 1.284209941426784e-06 2.717477676075693e-06 96.15753439360863 3.1805546814635164e-15 0.0 0.0 -116.66544164087293 -17.98738114299264 159.15107331224516 1.3704582642523744e-06 -2.113024750337303e-06 -99.06194608539425 -6.3611093629270335e-15 6.3611093629270335e-15 3.531125038440127e-31
5.286237865220755e-05 60.99797058105469 -0.0009068975341506302 0.5061494120827916 -10.561713941238418 -14.952247930761839 -9.913770421712918 -46.563390327586596 -4.80843089139156 12.39607664877309 78.53673241244485 -7.702695184681563 -7.951386703658792e-16 -2.069018577211012e-33 2.981770013872047e-16 -4.8370393623073795 -47.81884184027829 -1.1158969294208916 0.9757609400729078 77.41895828824893 0.03393674553976269 0.0 0.0 -6.460501696722769e-16 -0.6052399526916961 25.752112206562604 -1.1795696351432625 6.299236225042475e-09 -3.7925986810978285e-07 -3.2345904633300013 -1.459023564447536 -7.957609735943773 177.0051430076091 113.96915449561146 -12.64019442783638 -156.8744031595844 7.233286883266149e-08 1.9593519760784006e-06 96.03465753779527 -6.3611093629270335e-15 -1.7655625192200634e-31 3.1805546814635168e-15 -116.74300314382789 -18.055844393859573 159.01604784805775 -2.584559288257773e-06 -5.137649635442248e-07 -99.23049473659759 -6.3611093629270335e-15 -3.531125038440127e-31 6.3611093629270335e-15
6.019086140440777e-05 60.99797058105469 -0.0009032824891619384 0.5814437583717171 -10.453583399958013 -14.93599276881233 -9.94532340802757 -46.72116681963919 -4.7975585429006395 12.731618400388951 78.68946960498552 -8.070341517342653 0.0 0.0 -3.776908684237926e-15 -4.963925812299094 -48.129214425015775 -1.1687461404521409 1.176757731532933 77.54334641184956 -0.12682310779831604 -7.951386703658792e-16 -3.1805546814635168e-15 -4.472655020808071e-16 -0.7450913743609443 25.577169402552972 -1.139003256391033 1.4111282677253625e-07 -1.4741663224865396e-06 -3.2331787981313544 -1.161979455404119 -8.212632939014739 176.6956499058919 114.02224124164145 -12.580126652766598 -156.9173446662493 1.0983490287168792e-07 -1.733893714660619e-07 96.4430785514151 0.0 6.361109362927033e-15 0.0 -116.59625244474006 -18.05087956158577 159.0407073317351 -3.929351807671346e-06 -2.107707790692381e-07 -99.42270117469945 0.0 0.0 -6.3611093629270335e-15
6.236614717636257e-05 60.99797439575195 -0.0009088875376619399 0.6485490913792478 -10.629410271212407 -14.900925332525585 -10.159657588204388 -46.62526946590541 -4.895833659188776 12.562567930422057 78.86195506738629 -7.8040555965154015 0.0 0.0 6.957463365701443e-16 -5.111098889122981 -47.91156166936508 -1.222276522413794 0.740707803606862 77.47496113195379 0.35388515829400186 3.975693351829396e-16 1.2069275033730902e-33 3.4787316828507215e-16 -0.9464070925167061 25.751196099336404 -1.08894659897811 -2.9557708830148367e-07 -8.004544242904697e-07 -3.3562547385419443 -1.033960174200163 -8.185768357005058 176.4992496280704 114.01783979494037 -12.433944715540989 -156.80254012485517 5.4762798943817955e-06 -2.2081072665936506e-06 96.68942441475227 -3.1805546814635168e-15 6.3611093629270335e-15 1.7655625192200634e-31 -116.42761152481081 -18.020452479401563 159.0244154649621 -1.8172611045349107e-06 7.848067473805233e-07 -99.47305432455116 0.0 0.0 6.3611093629270335e-15
